<svg width="269" height="29" viewBox="0 0 269 29" fill="none" xmlns="http://www.w3.org/2000/svg">
<path d="M9.84692 28L0.926919 -1.90735e-06H5.52692L10.9269 17.52C11.0869 17.9467 11.2336 18.4533 11.3669 19.04C11.5003 19.6 11.6203 20.1733 11.7269 20.76C11.8336 21.3467 11.9269 21.8933 12.0069 22.4C12.1136 22.9067 12.2069 23.32 12.2869 23.64L11.1269 23.6C11.5269 22.1867 11.8336 21.0933 12.0469 20.32C12.2869 19.5467 12.4736 18.96 12.6069 18.56C12.7403 18.1333 12.8603 17.7733 12.9669 17.48L18.0069 4.84H21.8869L26.7669 17.48C27.0336 18.12 27.2603 18.76 27.4469 19.4C27.6603 20.0133 27.8469 20.64 28.0069 21.28C28.1669 21.8933 28.3403 22.5467 28.5269 23.24L27.4869 23.52C27.6203 22.8 27.7136 22.24 27.7669 21.84C27.8469 21.4133 27.9136 21.0667 27.9669 20.8C28.0203 20.5333 28.0736 20.28 28.1269 20.04C28.1803 19.7733 28.2603 19.44 28.3669 19.04C28.5003 18.64 28.6736 18.0933 28.8869 17.4L34.2069 -1.90735e-06H38.8469L29.9269 28H26.9269L19.5269 10.48L19.8869 10.64L12.7669 28H9.84692ZM43.7307 28V-1.90735e-06H61.3707V4.16H48.0507V23.84H61.3707V28H43.7307ZM45.6907 15.72V11.56H59.1707V15.72H45.6907ZM65.381 28L76.221 -1.90735e-06H80.621L91.381 28H86.781L80.381 11.12C80.301 10.9333 80.141 10.48 79.901 9.76C79.6876 9.04 79.4343 8.24 79.141 7.36C78.8476 6.48 78.581 5.68 78.341 4.96C78.101 4.21333 77.941 3.73333 77.861 3.52L78.781 3.48C78.621 3.93333 78.421 4.50667 78.181 5.2C77.9676 5.89333 77.7276 6.62667 77.461 7.4C77.221 8.17333 76.981 8.90667 76.741 9.6C76.501 10.2667 76.301 10.8267 76.141 11.28L69.781 28H65.381ZM70.181 21.04L71.781 16.88H84.501L86.341 21.04H70.181ZM99.6366 28V4.16H91.7966V-1.90735e-06H112.037V4.16H103.957V28H99.6366ZM135.643 28V-1.90735e-06H139.963V28H135.643ZM117.363 28V-1.90735e-06H121.683V28H117.363ZM119.243 16.12V11.96H137.563V16.12H119.243ZM147.793 28V-1.90735e-06H165.433V4.16H152.113V23.84H165.433V28H147.793ZM149.753 15.72V11.56H163.233V15.72H149.753ZM172.363 28V-1.90735e-06H184.283C185.883 -1.90735e-06 187.35 0.399999 188.683 1.2C190.043 1.97333 191.123 3.04 191.923 4.4C192.723 5.73333 193.123 7.24 193.123 8.92C193.123 10.44 192.723 11.8533 191.923 13.16C191.123 14.4667 190.057 15.52 188.723 16.32C187.39 17.0933 185.91 17.48 184.283 17.48H176.683V28H172.363ZM189.003 28L181.883 15.36L186.323 14.36L194.243 28.04L189.003 28ZM176.683 13.32H184.683C185.457 13.32 186.15 13.1333 186.763 12.76C187.377 12.36 187.857 11.8267 188.203 11.16C188.55 10.4667 188.723 9.70667 188.723 8.88C188.723 7.94667 188.497 7.13333 188.043 6.44C187.617 5.72 187.003 5.16 186.203 4.76C185.43 4.36 184.55 4.16 183.563 4.16H176.683V13.32ZM199.136 28V24H203.656V4H199.136V-1.90735e-06H212.496V4H207.976V24H212.496V28H199.136ZM219.278 28V-1.90735e-06H223.158L240.278 22.92L239.638 23.28C239.531 22.6133 239.438 21.8933 239.358 21.12C239.278 20.32 239.198 19.48 239.118 18.6C239.064 17.6933 239.011 16.7467 238.958 15.76C238.931 14.7467 238.904 13.6933 238.878 12.6C238.851 11.5067 238.838 10.3733 238.838 9.2V-1.90735e-06H243.158V28H239.198L222.358 5.92L222.798 5.36C222.931 6.98667 223.038 8.37333 223.118 9.52C223.224 10.64 223.304 11.6 223.358 12.4C223.438 13.1733 223.491 13.8133 223.518 14.32C223.544 14.8 223.558 15.2 223.558 15.52C223.584 15.84 223.598 16.12 223.598 16.36V28H219.278ZM250.996 28V-1.90735e-06H268.636V4.16H255.316V23.84H268.636V28H250.996ZM252.956 15.72V11.56H266.436V15.72H252.956Z" fill="white"/>
</svg>
